<?xml version="1.0" encoding="UTF-8" standalone="no"?>
<!-- Created with Inkscape (http://www.inkscape.org/) -->

<svg
   xmlns:dc="http://purl.org/dc/elements/1.1/"
   xmlns:cc="http://creativecommons.org/ns#"
   xmlns:rdf="http://www.w3.org/1999/02/22-rdf-syntax-ns#"
   xmlns:svg="http://www.w3.org/2000/svg"
   xmlns="http://www.w3.org/2000/svg"
   xmlns:sodipodi="http://sodipodi.sourceforge.net/DTD/sodipodi-0.dtd"
   xmlns:inkscape="http://www.inkscape.org/namespaces/inkscape"
   width="48"
   height="48"
   id="svg3079"
   version="1.1"
   inkscape:version="0.48.4 r9939"
   sodipodi:docname="New document 2">
  <defs
     id="defs3081" />
  <sodipodi:namedview
     id="base"
     pagecolor="#ffffff"
     bordercolor="#666666"
     borderopacity="1.0"
     inkscape:pageopacity="0.0"
     inkscape:pageshadow="2"
     inkscape:zoom="2.8"
     inkscape:cx="-117.1065"
     inkscape:cy="80.694466"
     inkscape:document-units="px"
     inkscape:current-layer="layer1"
     showgrid="false"
     inkscape:window-width="1600"
     inkscape:window-height="874"
     inkscape:window-x="0"
     inkscape:window-y="0"
     inkscape:window-maximized="1" />
  <metadata
     id="metadata3084">
    <rdf:RDF>
      <cc:Work
         rdf:about="">
        <dc:format>image/svg+xml</dc:format>
        <dc:type
           rdf:resource="http://purl.org/dc/dcmitype/StillImage" />
        <dc:title></dc:title>
      </cc:Work>
    </rdf:RDF>
  </metadata>
  <g
     inkscape:label="Layer 1"
     inkscape:groupmode="layer"
     id="layer1"
     transform="translate(0,-1004.3622)">
    <g
       style="stroke:none"
       transform="matrix(0.05911409,0,0,0.05829472,0.88177182,1005.2456)"
       id="g40610">
      <rect
         style="fill:#ffcc66;fill-opacity:1;stroke:none"
         id="rect40600"
         width="625.25598"
         height="169.28328"
         x="84.64164"
         y="315.27805"
         rx="4"
         ry="4" />
      <path
         inkscape:connector-curvature="0"
         style="font-size:33.07472229px;font-style:normal;font-variant:normal;font-weight:normal;font-stretch:normal;text-align:start;line-height:100%;writing-mode:lr-tb;text-anchor:start;fill:#393939;fill-opacity:1;stroke:none;font-family:Adobe Heiti Std R;-inkscape-font-specification:Adobe Heiti Std R"
         id="text3702"
         d="m 215.85765,352.15712 -13.6714,0 0,34.3384 -36.7715,0 0,-34.3384 -13.67141,0 0,83.2381 13.67141,0 0,-37.8158 36.7715,0 0,37.8158 13.6714,0 0,-83.2381 z m 63.3051,71.9368 c -2.0896,0.8309 -4.4516,1.5055 -7.0861,2.0239 -2.6347,0.5185 -5.7333,0.7856 -9.296,0.8014 -5.284,0.068 -9.8019,-1.3447 -13.5536,-4.2379 -3.7518,-2.8933 -5.7947,-7.6746 -6.1286,-14.3439 l 41.25,0 c 0.2357,-1.5032 0.3535,-3.2781 0.3536,-5.3247 0.076,-7.6654 -1.903,-14.3121 -5.9371,-19.9401 -4.0342,-5.628 -10.5801,-8.5801 -19.6379,-8.8563 -9.2616,0.2219 -16.4313,3.337 -21.5089,9.3452 -5.0777,6.0084 -7.651,13.5788 -7.7197,22.7112 0.064,9.2502 2.7647,16.5852 8.1027,22.0048 5.3379,5.4197 12.9299,8.1907 22.7759,8.313 4.4393,-0.027 8.4071,-0.3803 11.9036,-1.0595 3.4963,-0.6792 6.4035,-1.5213 8.7214,-2.5265 l -2.2393,-8.9106 z m -35.9464,-24.7758 c 0.3069,-3.7127 1.6377,-7.2625 3.9924,-10.6493 2.3547,-3.3867 6.0131,-5.1978 10.9754,-5.4332 5.1612,0.2219 8.746,2.0058 10.7545,5.3517 2.0084,3.3461 2.9415,6.923 2.7991,10.7308 l -28.5214,0 z m 69.5329,-40.315 c -0.034,-2.162 -0.7612,-3.9233 -2.1804,-5.2839 -1.4192,-1.3605 -3.3246,-2.0623 -5.7161,-2.1054 -2.3964,0.043 -4.3214,0.7449 -5.775,2.1054 -1.4536,1.3606 -2.2,3.1219 -2.2393,5.2839 0.034,2.0624 0.7612,3.7784 2.1804,5.148 1.4192,1.3697 3.3245,2.0806 5.7161,2.1326 2.4995,-0.052 4.4539,-0.7629 5.8633,-2.1326 1.4094,-1.3696 2.1264,-3.0856 2.151,-5.148 l 0,0 z m -1.1786,16.4085 -13.6714,0 0,59.9836 13.6714,0 0,-59.9836 z m 71.8491,-27.1665 -13.6715,0 0,34.0125 -0.2357,0 c -1.4315,-2.3318 -3.6069,-4.2425 -6.5263,-5.7322 -2.9195,-1.4896 -6.4797,-2.2593 -10.6808,-2.3091 -7.4717,0.057 -13.8016,2.8231 -18.9898,8.2993 -5.1881,5.4764 -7.8939,13.323 -8.1173,23.5398 0.1595,9.3543 2.6394,16.7527 7.4397,22.195 4.8002,5.4423 10.9631,8.2224 18.48881,8.3401 4.6283,-0.059 8.6306,-1.055 12.0067,-2.9883 3.3761,-1.9334 5.9346,-4.4508 7.6755,-7.5523 l 0.3535,0 0.7072,9.3453 12.02139,0 c -0.12279,-2.1326 -0.2309,-4.6319 -0.32409,-7.498 -0.093,-2.866 -0.1425,-5.6913 -0.1473,-8.4759 l 0,-71.1762 z m -13.6715,62.5916 c -0.057,4.3081 -1.3873,7.9439 -3.9924,10.9073 -2.6051,2.9634 -6.1458,4.5074 -10.6218,4.6319 -5.2054,-0.1313 -9.1733,-2.1235 -11.9036,-5.9766 -2.73039,-3.8531 -4.10539,-8.7793 -4.125,-14.7786 0.022,-6.0739 1.4216,-11.1224 4.1987,-15.1453 2.7769,-4.0228 6.7988,-6.1101 12.0656,-6.2618 3.9506,0.036 7.3046,1.4036 10.062,4.1021 2.7573,2.6986 4.1962,6.5109 4.31651,11.4371 l 0,11.0839 z m 45.8971,-51.8336 c -0.034,-2.162 -0.7612,-3.9233 -2.1803,-5.2839 -1.4193,-1.3605 -3.32459,-2.0623 -5.7161,-2.1054 -2.3965,0.043 -4.32139,0.7449 -5.77499,2.1054 -1.4536,1.3606 -2.2,3.1219 -2.2393,5.2839 0.034,2.0624 0.76119,3.7784 2.1804,5.148 1.4192,1.3697 3.3245,2.0806 5.716,2.1326 2.4996,-0.052 4.4541,-0.7629 5.8634,-2.1326 1.4094,-1.3696 2.1264,-3.0856 2.1509,-5.148 l 0,0 z m -1.1785,16.4085 -13.67149,0 0,59.9836 13.67149,0 0,-59.9836 z m 63.8348,-20.6465 c -1.9546,-0.9666 -4.5278,-1.8314 -7.7197,-2.5944 -3.192,-0.7628 -6.9438,-1.1658 -11.2554,-1.2089 -9.0602,0.1382 -16.1906,2.3341 -21.391,6.5878 -5.2005,4.2539 -7.8523,9.737 -7.9554,16.4493 0.098,5.6235 2.1705,10.3777 6.217,14.2624 4.0464,3.8849 9.4776,7.0634 16.2937,9.5355 5.3306,2.0126 9.2248,4.2357 11.6826,6.6693 2.4578,2.4337 3.6707,5.3903 3.6388,8.8699 -0.027,3.8056 -1.4757,6.8437 -4.3459,9.1143 -2.8704,2.2707 -7.0003,3.4343 -12.3898,3.4909 -3.7616,-0.034 -7.3464,-0.5093 -10.7544,-1.4262 -3.4081,-0.9169 -6.3447,-2.0714 -8.8098,-3.4637 l -3.0643,10.5406 c 2.2859,1.3968 5.4042,2.5695 9.3549,3.518 3.9506,0.9486 8.1002,1.4421 12.4486,1.4806 10.1799,-0.1449 17.9585,-2.4631 23.3357,-6.9546 5.3772,-4.4916 8.0879,-10.2871 8.1322,-17.3866 0.012,-5.6483 -1.7507,-10.4341 -5.2888,-14.3575 -3.5383,-3.9232 -8.9253,-7.3235 -16.1612,-10.201 -5.6891,-2.1845 -9.8681,-4.3895 -12.5371,-6.615 -2.669,-2.2253 -3.9899,-5.0552 -3.9629,-8.4895 -0.037,-2.7913 1.1564,-5.3042 3.5799,-7.5387 2.4234,-2.2344 6.298,-3.4161 11.6237,-3.5452 3.7321,0.059 6.9633,0.4845 9.6937,1.2768 2.7303,0.7924 4.842,1.5984 6.3349,2.4178 l 3.3,-10.4319 z m 67.4225,77.1527 c 6.65151,-2.3589 11.9992,-6.8233 16.04331,-13.393 4.0439,-6.5698 6.12109,-15.1091 6.2317,-25.618 -0.089,-12.3018 -3.3885,-22.3081 -9.9,-30.019 -6.5117,-7.7106 -15.7046,-11.686 -27.5786,-11.926 -11.8349,0.1676 -21.2536,4.1248 -28.2563,11.8717 -7.0027,7.7471 -10.5875,18.2786 -10.7545,31.5946 0.27999,13.649 3.87459,24.0039 10.784,31.0649 6.9093,7.061 15.45399,10.7602 25.6339,11.0975 0.8274,0.01 1.677,0.129 2.5487,0.3667 0.8716,0.2377 1.7506,0.5501 2.637,0.9373 4.8542,1.7545 9.9663,3.4886 15.3362,5.2024 5.3698,1.7137 10.8649,3.312 16.4853,4.7948 l 4.125,-10.1059 c -3.5285,-0.7086 -7.3146,-1.5191 -11.3585,-2.4314 -4.044,-0.9123 -8.0364,-1.913 -11.97721,-3.0019 l 0,-0.4347 z m -15.67499,-70.6328 c 7.9945,0.3352 13.92669,3.6857 17.79639,10.0516 3.8696,6.3661 5.7946,13.7373 5.775,22.1135 -0.017,9.1642 -2.0454,16.8614 -6.0844,23.0915 -4.03909,6.2302 -9.986,9.4721 -17.8406,9.7256 -7.6436,-0.2807 -13.51189,-3.5226 -17.6049,-9.7256 -4.0931,-6.2029 -6.1606,-13.6828 -6.2023,-22.4395 -0.032,-8.546 1.9176,-16.0666 5.8487,-22.5617 3.931,-6.495 10.035,-9.9134 18.3121,-10.2554 l 0,0 z m 100.36379,63.4609 -34.76779,0 0,-72.4801 -13.67151,0 0,83.1294 48.4393,0 0,-10.6493 z" />
      <path
         style="fill:#99cc99;fill-opacity:1;stroke:none"
         d="M 391.06252,2 C 176.1804,2 2.000028,178.66449 2.000028,396.5625 c 0,217.89801 174.180372,394.53125 389.062492,394.53125 214.88212,0 389.09375,-176.63324 389.09375,-394.53125 C 780.15627,178.66449 605.94464,2 391.06252,2 z m -264.3125,331.03125 528.65625,0 c 13.73892,0 24.78125,11.07358 24.78125,24.8125 l 0,77.40625 c 0,13.73892 -11.04233,24.8125 -24.78125,24.8125 l -528.65625,0 c -13.73892,0 -24.8125,-11.07358 -24.8125,-24.8125 l 0,-77.40625 c 0,-13.73892 11.07358,-24.8125 24.8125,-24.8125 z"
         id="path3030-7"
         inkscape:connector-curvature="0" />
      <path
         style="fill:#f2f0ec;fill-opacity:1;stroke:none"
         d="m 2,396.5312 c 0,217.89805 174.2117,394.56255 389.0938,394.56255 214.8821,0 389.0625,-176.6645 389.0625,-394.56255 l -99.9375,0 0,38.71875 c 0,13.73892 -11.0736,24.8125 -24.8125,24.8125 l -528.6563,0 c -13.7389,0 -24.7812,-11.07358 -24.7812,-24.8125 l 0,-38.71875 -99.9688,0 z"
         id="path3030-8-8-1"
         inkscape:connector-curvature="0" />
    </g>
  </g>
</svg>
