<?xml version="1.0" encoding="UTF-8" standalone="no"?>
<svg
   xmlns:dc="http://purl.org/dc/elements/1.1/"
   xmlns:cc="http://creativecommons.org/ns#"
   xmlns:rdf="http://www.w3.org/1999/02/22-rdf-syntax-ns#"
   xmlns:svg="http://www.w3.org/2000/svg"
   xmlns="http://www.w3.org/2000/svg"
   xmlns:sodipodi="http://sodipodi.sourceforge.net/DTD/sodipodi-0.dtd"
   xmlns:inkscape="http://www.inkscape.org/namespaces/inkscape"
   viewBox="0 0 48 48"
   id="svg2"
   version="1.1"
   inkscape:version="0.91 r"
   sodipodi:docname="slack.svg">
  <metadata
     id="metadata93">
    <rdf:RDF>
      <cc:Work
         rdf:about="">
        <dc:format>image/svg+xml</dc:format>
        <dc:type
           rdf:resource="http://purl.org/dc/dcmitype/StillImage" />
        <dc:title></dc:title>
      </cc:Work>
    </rdf:RDF>
  </metadata>
  <sodipodi:namedview
     pagecolor="#ffffff"
     bordercolor="#666666"
     borderopacity="1"
     objecttolerance="10"
     gridtolerance="10"
     guidetolerance="10"
     inkscape:pageopacity="0"
     inkscape:pageshadow="2"
     inkscape:window-width="1600"
     inkscape:window-height="876"
     id="namedview91"
     showgrid="false"
     inkscape:zoom="4.9166667"
     inkscape:cx="-10.779661"
     inkscape:cy="24"
     inkscape:window-x="0"
     inkscape:window-y="0"
     inkscape:window-maximized="1"
     inkscape:current-layer="g29" />
  <defs
     id="defs4">
    <linearGradient
       id="linearGradient3764"
       x1="1"
       x2="47"
       gradientUnits="userSpaceOnUse"
       gradientTransform="matrix(0,-1,1,0,-1.5e-6,47.999998)">
      <stop
         stop-color="#efefef"
         stop-opacity="1"
         id="stop7" />
      <stop
         offset="1"
         stop-color="#f9f9f9"
         stop-opacity="1"
         id="stop9" />
    </linearGradient>
    <clipPath
       id="clipPath-084505435">
      <g
         transform="translate(0,-1004.3622)"
         id="g12">
        <path
           d="m -24 13 c 0 1.105 -0.672 2 -1.5 2 -0.828 0 -1.5 -0.895 -1.5 -2 0 -1.105 0.672 -2 1.5 -2 0.828 0 1.5 0.895 1.5 2 z"
           transform="matrix(15.333333,0,0,11.5,414.99999,878.8622)"
           fill="#1890d0"
           id="path14" />
      </g>
    </clipPath>
    <clipPath
       id="clipPath-096389266">
      <g
         transform="translate(0,-1004.3622)"
         id="g17">
        <path
           d="m -24 13 c 0 1.105 -0.672 2 -1.5 2 -0.828 0 -1.5 -0.895 -1.5 -2 0 -1.105 0.672 -2 1.5 -2 0.828 0 1.5 0.895 1.5 2 z"
           transform="matrix(15.333333,0,0,11.5,414.99999,878.8622)"
           fill="#1890d0"
           id="path19" />
      </g>
    </clipPath>
  </defs>
  <g
     id="g21">
    <path
       d="m 36.31 5 c 5.859 4.062 9.688 10.831 9.688 18.5 c 0 12.426 -10.07 22.5 -22.5 22.5 c -7.669 0 -14.438 -3.828 -18.5 -9.688 c 1.037 1.822 2.306 3.499 3.781 4.969 c 4.085 3.712 9.514 5.969 15.469 5.969 c 12.703 0 23 -10.298 23 -23 c 0 -5.954 -2.256 -11.384 -5.969 -15.469 c -1.469 -1.475 -3.147 -2.744 -4.969 -3.781 z m 4.969 3.781 c 3.854 4.113 6.219 9.637 6.219 15.719 c 0 12.703 -10.297 23 -23 23 c -6.081 0 -11.606 -2.364 -15.719 -6.219 c 4.16 4.144 9.883 6.719 16.219 6.719 c 12.703 0 23 -10.298 23 -23 c 0 -6.335 -2.575 -12.06 -6.719 -16.219 z"
       opacity="0.05"
       id="path23" />
    <path
       d="m 41.28 8.781 c 3.712 4.085 5.969 9.514 5.969 15.469 c 0 12.703 -10.297 23 -23 23 c -5.954 0 -11.384 -2.256 -15.469 -5.969 c 4.113 3.854 9.637 6.219 15.719 6.219 c 12.703 0 23 -10.298 23 -23 c 0 -6.081 -2.364 -11.606 -6.219 -15.719 z"
       opacity="0.1"
       id="path25" />
    <path
       d="m 31.25 2.375 c 8.615 3.154 14.75 11.417 14.75 21.13 c 0 12.426 -10.07 22.5 -22.5 22.5 c -9.708 0 -17.971 -6.135 -21.12 -14.75 a 23 23 0 0 0 44.875 -7 a 23 23 0 0 0 -16 -21.875 z"
       opacity="0.2"
       id="path27" />
  </g>
  <g
     id="g29">
    <path
       d="m 24 1 c 12.703 0 23 10.297 23 23 c 0 12.703 -10.297 23 -23 23 -12.703 0 -23 -10.297 -23 -23 0 -12.703 10.297 -23 23 -23 z"
       fill="url(#linearGradient3764)"
       fill-opacity="1"
       id="path31"
       style="fill:#f9f9f9" />
    <g
       id="g3"
       transform="matrix(1.190939,0.18649607,-0.18649607,1.190939,8.2085888,2.3443174)">
      <path
         d="M 31.14174,17.232133 C 30.600187,15.811688 29.008504,15.098726 27.588059,15.640279 L 26.231967,16.15939 23.265003,8.390656 24.620983,7.8735425 C 26.04154,7.3299926 26.753448,5.739252 26.21084,4.3197495 25.669343,2.898306 24.078658,2.1854 22.657103,2.7288941 L 21.302066,3.2470618 20.784009,1.8900272 C 20.241458,0.46952622 18.650662,-0.24138291 17.230161,0.30116856 15.809716,0.84272158 15.098862,2.4325196 15.640304,3.8549615 L 16.158415,5.2109977 8.3897376,8.1769631 7.8726242,6.8209827 C 7.3301844,5.3984849 5.7392763,4.6895727 4.318887,5.2301272 2.8983861,5.7726787 2.187477,7.3634751 2.72903,8.7839202 l 0.5171693,1.3549818 -1.3550936,0.519166 c -1.42050092,0.542552 -2.13229684,2.131295 -1.5898012,3.552795 0.54155303,1.420445 2.1332921,2.132408 3.5537372,1.590855 l 1.356092,-0.51911 2.964911,7.76962 -1.3559803,0.517114 c -1.4205009,0.542551 -2.1314659,2.134346 -1.589857,3.553793 0.5424956,1.421499 2.1332362,2.133407 3.5536813,1.591854 l 1.3550373,-0.518168 0.518112,1.356036 c 0.542496,1.4215 2.133292,2.132409 3.553793,1.589857 1.419447,-0.541609 2.131355,-2.132349 1.588803,-3.55285 l -0.516059,-1.356923 7.768622,-2.964967 0.517337,1.351987 c 0.542384,1.423496 2.132126,2.135348 3.553625,1.592852 1.420389,-0.540555 2.132353,-2.132294 1.589857,-3.553793 l -0.517169,-1.354982 1.354095,-0.519222 c 1.422498,-0.54244 2.13435,-2.132182 1.591798,-3.552683 z m -17.822101,3.857158 -2.965854,-7.770675 7.768622,-2.964967 2.965966,7.768678 -7.768734,2.966964 z"
         id="path5"
         inkscape:connector-curvature="0" />
    </g>
  </g>
  <g
     id="g33" />
  <g
     id="g87">
    <path
       d="m 40.03 7.531 c 3.712 4.084 5.969 9.514 5.969 15.469 0 12.703 -10.297 23 -23 23 c -5.954 0 -11.384 -2.256 -15.469 -5.969 4.178 4.291 10.01 6.969 16.469 6.969 c 12.703 0 23 -10.298 23 -23 0 -6.462 -2.677 -12.291 -6.969 -16.469 z"
       opacity="0.1"
       id="path89" />
  </g>
</svg>
