<?xml version="1.0" encoding="UTF-8" standalone="no"?>
<svg
   xmlns:dc="http://purl.org/dc/elements/1.1/"
   xmlns:cc="http://creativecommons.org/ns#"
   xmlns:rdf="http://www.w3.org/1999/02/22-rdf-syntax-ns#"
   xmlns:svg="http://www.w3.org/2000/svg"
   xmlns="http://www.w3.org/2000/svg"
   xmlns:sodipodi="http://sodipodi.sourceforge.net/DTD/sodipodi-0.dtd"
   xmlns:inkscape="http://www.inkscape.org/namespaces/inkscape"
   viewBox="0 0 48 48"
   id="svg2"
   version="1.1"
   inkscape:version="0.91 r"
   sodipodi:docname="slack.svg">
  <metadata
     id="metadata55">
    <rdf:RDF>
      <cc:Work
         rdf:about="">
        <dc:format>image/svg+xml</dc:format>
        <dc:type
           rdf:resource="http://purl.org/dc/dcmitype/StillImage" />
        <dc:title />
      </cc:Work>
    </rdf:RDF>
  </metadata>
  <sodipodi:namedview
     pagecolor="#ffffff"
     bordercolor="#666666"
     borderopacity="1"
     objecttolerance="10"
     gridtolerance="10"
     guidetolerance="10"
     inkscape:pageopacity="0"
     inkscape:pageshadow="2"
     inkscape:window-width="1360"
     inkscape:window-height="744"
     id="namedview53"
     showgrid="false"
     inkscape:zoom="4.9166667"
     inkscape:cx="13.125005"
     inkscape:cy="25.473898"
     inkscape:window-x="0"
     inkscape:window-y="0"
     inkscape:window-maximized="1"
     inkscape:current-layer="svg2"
     inkscape:snap-intersection-paths="true" />
  <defs
     id="defs4">
    <clipPath
       id="clipPath6">
      <g
         transform="translate(0,-1004.3622)"
         id="g8">
        <path
           d="m -24 13 c 0 1.105 -0.672 2 -1.5 2 -0.828 0 -1.5 -0.895 -1.5 -2 0 -1.105 0.672 -2 1.5 -2 0.828 0 1.5 0.895 1.5 2 z"
           transform="matrix(15.333333,0,0,11.5,414.99999,878.8622)"
           fill="#1890d0"
           id="path10" />
      </g>
    </clipPath>
    <clipPath
       id="clipPath12">
      <g
         transform="translate(0,-1004.3622)"
         id="g14">
        <path
           d="m -24 13 c 0 1.105 -0.672 2 -1.5 2 -0.828 0 -1.5 -0.895 -1.5 -2 0 -1.105 0.672 -2 1.5 -2 0.828 0 1.5 0.895 1.5 2 z"
           transform="matrix(15.333333,0,0,11.5,414.99999,878.8622)"
           fill="#1890d0"
           id="path16" />
      </g>
    </clipPath>
  </defs>
  <ellipse
     style="opacity:1;fill:#ffffff;fill-opacity:1;fill-rule:evenodd;stroke-width:0.01;stroke-miterlimit:4;stroke-dasharray:none"
     id="path3354"
     cx="23.484667"
     cy="23.69202"
     rx="21.902666"
     ry="22.133284" />
  <g
     inkscape:groupmode="layer"
     id="layer3"
     inkscape:label="sombrita"
     style="display:inline">
    <g
       transform="translate(0,0.0022)"
       id="g47">
      <path
         d="m 40.03,7.531 c 3.712,4.084 5.969,9.514 5.969,15.469 0,12.703 -10.297,23 -23,23 C 17.045,46 11.615,43.744 7.53,40.031 11.708,44.322 17.54,47 23.999,47 c 12.703,0 23,-10.298 23,-23 0,-6.462 -2.677,-12.291 -6.969,-16.469 z"
         id="path49"
         inkscape:connector-curvature="0"
         style="opacity:0.1" />
    </g>
  </g>
  <path
     style="opacity:0.4;fill:#77971f;fill-opacity:1;fill-rule:evenodd;stroke-width:0.01;stroke-miterlimit:4;stroke-dasharray:none"
     d="m 38.855956,34.868559 c -0.656609,-1.973093 -1.212196,-3.637669 -1.234637,-3.699058 -0.04374,-0.119654 7.562972,-2.7521 7.663108,-2.651963 0.03148,0.03148 -0.111522,0.593053 -0.317779,1.247944 -0.925103,2.937314 -2.347402,5.561471 -4.30921,7.950535 l -0.607647,0.739985 -1.193835,-3.587443 z"
     id="path4217"
     inkscape:connector-curvature="0" />
  <path
     style="opacity:1;fill:#d6100d;fill-opacity:1;fill-rule:evenodd;stroke-width:0.01;stroke-miterlimit:4;stroke-dasharray:none"
     d="m 38.870246,34.815632 c -0.647994,-1.944006 -1.178171,-3.5639 -1.178171,-3.599765 0,-0.09235 0.540609,-0.300748 3.254237,-1.25445 2.886767,-1.014552 4.161749,-1.416856 4.240553,-1.338052 0.08397,0.08397 -0.229441,1.157595 -0.70164,2.403515 -0.469076,1.237677 -1.203039,2.735212 -1.943842,3.966101 -0.497699,0.826956 -2.213227,3.184319 -2.402425,3.30125 -0.0498,0.03078 -0.620717,-1.534593 -1.268712,-3.478599 z"
     id="path4221"
     inkscape:connector-curvature="0" />
  <g
     inkscape:groupmode="layer"
     id="layer2"
     inkscape:label="fuente"
     style="display:inline">
    <text
       xml:space="preserve"
       style="font-style:normal;font-variant:normal;font-weight:normal;font-stretch:normal;font-size:38.96940994px;line-height:125%;font-family:sans-serif;-inkscape-font-specification:sans-serif;letter-spacing:0px;word-spacing:0px;display:inline;fill:#5c3a58;fill-opacity:1;stroke:none;stroke-width:1px;stroke-linecap:butt;stroke-linejoin:miter;stroke-opacity:1"
       x="16.48387"
       y="33.708641"
       id="text3383"
       sodipodi:linespacing="125%"
       transform="scale(1.0718406,0.93297454)"><tspan
         sodipodi:role="line"
         id="tspan3385"
         x="16.48387"
         y="33.708641"
         style="font-style:normal;font-variant:normal;font-weight:900;font-stretch:normal;font-size:21.92029572px;font-family:Lato;-inkscape-font-specification:'Lato Heavy';fill:#5c3a58;fill-opacity:1">S</tspan></text>
  </g>
  <g
     inkscape:groupmode="layer"
     id="layer1"
     inkscape:label="colores"
     style="display:inline">
    <path
       style="opacity:1;fill:#edb524;fill-opacity:1;fill-rule:evenodd;stroke-width:0.01;stroke-miterlimit:4;stroke-dasharray:none"
       d="m 37.486084,30.826113 c -0.313314,-0.798532 -6.823678,-20.272974 -6.788905,-20.30764 0.02606,-0.02598 2.082,-0.7645352 4.56876,-1.6412375 L 39.787321,7.2832313 40.03549,7.52224 c 0.353739,0.3406815 1.345769,1.6137737 1.97932,2.540102 3.244231,4.743459 4.598654,10.691419 3.724874,16.357813 -0.143131,0.928197 -0.326069,1.863455 -0.371658,1.900083 -0.03197,0.02569 -7.756623,2.631716 -7.800791,2.631716 -0.01748,0 -0.05399,-0.05663 -0.08115,-0.125841 z"
       id="path4237"
       inkscape:connector-curvature="0" />
    <path
       style="opacity:1;fill:#779820;fill-opacity:1;fill-rule:evenodd;stroke-width:0.01;stroke-miterlimit:4;stroke-dasharray:none"
       d="M 29.108354,5.9824386 C 28.293395,3.5605165 27.640916,1.5646376 27.658402,1.547152 c 0.04917,-0.049172 1.340239,0.1927866 2.2592,0.4233951 2.675854,0.6714922 5.376679,1.9187537 7.599856,3.5096704 0.906962,0.6490267 2.108078,1.6319248 2.107618,1.7247071 -2.64e-4,0.053255 -8.81339,3.1838964 -8.957748,3.1820154 -0.04248,-5.54e-4 -0.744014,-1.9825794 -1.558974,-4.4045014 z"
       id="path4239"
       inkscape:connector-curvature="0" />
    <path
       style="opacity:1;fill:#82d3e1;fill-opacity:1;fill-rule:evenodd;stroke-width:0.01;stroke-miterlimit:4;stroke-dasharray:none"
       d="M 8.9730861,12.991971 7.4799995,8.4803404 8.2180398,7.7723391 C 11.707923,4.4244978 16.077481,2.239129 20.664933,1.5472121 22.752332,1.2323735 24.869614,1.1825066 26.790183,1.4029483 l 0.719721,0.082609 1.501918,4.4541378 c 0.878319,2.6047738 1.475193,4.4803118 1.437553,4.5171778 -0.06378,0.06247 -19.817181,7.048685 -19.926389,7.047398 -0.03125,-3.6e-4 -0.7287023,-2.030904 -1.5498999,-4.5123 z"
       id="path4241"
       inkscape:connector-curvature="0" />
  </g>
  <path
     style="opacity:1;fill:#20a48d;fill-opacity:1;fill-rule:evenodd;stroke-width:0.01;stroke-miterlimit:4;stroke-dasharray:none"
     d="m 1.5853908,20.423733 c 0,-0.183051 0.3373897,-1.697256 0.5336812,-2.39516 0.5848232,-2.07931 1.5108229,-4.172122 2.6498137,-5.988729 C 5.3072813,11.181142 6.4691945,9.6301581 7.0236935,9.0300056 L 7.4459877,8.5729425 8.9065463,13.010574 c 0.8033066,2.440697 1.4504887,4.445019 1.4381837,4.454048 -0.01231,0.009 -1.9325277,0.683438 -4.267158,1.498686 -2.3346303,0.815248 -4.3004471,1.503629 -4.3684818,1.529737 -0.085699,0.03289 -0.1236994,0.01159 -0.1236994,-0.06931 z"
     id="path4247"
     inkscape:connector-curvature="0" />
  <path
     style="opacity:1;fill:#49c39e;fill-opacity:1;fill-rule:evenodd;stroke-width:0.01;stroke-miterlimit:4;stroke-dasharray:none"
     d="M 7.7150779,40.174305 C 5.7727223,38.272241 3.987152,35.503464 2.8574168,32.64182 2.1315158,30.803097 1.6383586,28.794208 1.4010607,26.709314 1.2644622,25.509162 1.2889176,22.40541 1.4438385,21.280172 l 0.089103,-0.647183 4.4306609,-1.549961 c 2.4368636,-0.852478 4.4382905,-1.53202 4.4476155,-1.510092 0.07448,0.175148 6.701979,20.309654 6.688336,20.319345 -0.06073,0.04313 -8.5909113,2.911229 -8.6584714,2.911229 -0.045909,0 -0.3726112,-0.283143 -0.7260047,-0.629205 z"
     id="path4249"
     inkscape:connector-curvature="0" />
  <path
     style="opacity:1;fill:#3e103d;fill-opacity:1;fill-rule:evenodd;stroke-width:0.01;stroke-miterlimit:4;stroke-dasharray:none"
     d="m 18.481446,45.5558 c -3.02722,-0.623541 -5.648792,-1.700684 -8.123137,-3.337608 -0.932553,-0.616938 -1.8082446,-1.2894 -1.7478966,-1.342247 0.060635,-0.0531 8.4009506,-2.876893 8.4971446,-2.876893 0.03029,0 0.616183,1.706944 1.301971,3.793209 0.685788,2.086264 1.261619,3.833657 1.279623,3.883095 0.04527,0.124311 -0.08764,0.111153 -1.207705,-0.119556 z"
     id="path4251"
     inkscape:connector-curvature="0" />
  <path
     style="opacity:1;fill:#e5176e;fill-opacity:1;fill-rule:evenodd;stroke-width:0.01;stroke-miterlimit:4;stroke-dasharray:none"
     d="m 20.592749,45.885595 c -0.40244,-0.04711 -0.746517,-0.101557 -0.764618,-0.120984 -0.07016,-0.07531 -2.572235,-7.712527 -2.549292,-7.781355 0.03347,-0.100401 20.132916,-6.901431 20.196498,-6.833869 0.02808,0.02984 0.605272,1.702862 1.28265,3.717834 l 1.231597,3.663585 -0.631555,0.639714 c -1.412423,1.43067 -3.487467,2.9966 -5.295608,3.996325 -2.417638,1.336716 -5.103356,2.222017 -8.017487,2.642825 -1.008367,0.145611 -4.447813,0.193507 -5.452185,0.07593 z"
     id="path4253"
     inkscape:connector-curvature="0" />
</svg>
